<svg version="1.0" xmlns="http://www.w3.org/2000/svg"
 width="886.000000pt" height="564.000000pt" viewBox="0 0 886.000000 564.000000"
 preserveAspectRatio="xMidYMid meet">

<g transform="translate(0.000000,564.000000) scale(0.100000,-0.100000)"
fill="#000000" stroke="none">
<path d="M5010 5629 c-51 -7 -100 -16 -205 -38 -22 -5 -53 -13 -70 -19 -16 -6
-61 -20 -100 -32 -38 -11 -79 -25 -90 -29 -11 -5 -51 -21 -90 -37 -173 -69
-397 -200 -553 -323 -338 -265 -602 -623 -767 -1039 l-18 -43 -50 58 c-109
124 -193 192 -320 256 -106 54 -128 62 -267 98 -69 18 -353 15 -420 -4 -30 -9
-66 -19 -80 -22 -61 -16 -210 -87 -280 -135 -78 -53 -203 -177 -261 -260 -77
-108 -134 -240 -169 -389 -18 -78 -16 -330 4 -406 9 -32 16 -64 16 -70 0 -7
-30 -17 -66 -24 -293 -54 -616 -245 -837 -496 -183 -207 -299 -436 -369 -725
-18 -77 -18 -565 0 -635 7 -27 18 -68 24 -90 35 -133 129 -358 199 -480 96
-168 259 -345 430 -468 147 -106 354 -199 524 -236 28 -6 71 -15 97 -21 44 -9
384 -10 3545 -10 l893 0 2 888 3 887 668 3 667 2 0 225 0 225 -223 0 -223 0 1
207 c1 115 3 214 3 221 2 9 98 12 447 12 l445 0 0 -220 0 -220 220 0 220 0 0
220 0 220 -220 0 -220 0 0 220 0 220 218 0 217 0 -2 -202 c0 -112 1 -211 4
-220 4 -17 24 -18 229 -18 l224 0 -2 -222 -3 -223 -222 -3 -223 -2 0 -220 0
-220 -222 -2 -223 -3 -3 -217 -2 -218 -553 -2 -552 -3 0 -665 0 -665 220 0
220 0 3 443 2 442 445 0 445 0 -2 -222 -3 -223 -220 -5 -220 -5 0 -215 0 -215
220 0 220 0 3 217 2 218 218 2 217 3 3 222 2 222 113 3 112 3 3 209 c2 145 -1
213 -9 222 -9 11 -56 14 -225 14 l-214 0 2 218 3 217 220 0 220 0 5 -220 5
-220 215 0 215 0 3 223 2 222 -219 0 c-136 0 -221 4 -223 10 -1 5 -2 107 0
225 l3 215 219 0 220 0 0 220 0 220 -220 0 -220 0 0 225 0 225 220 0 220 0 0
890 0 890 -868 0 -868 0 -39 41 c-74 77 -279 242 -394 317 -121 79 -273 160
-386 206 -38 15 -79 32 -90 36 -39 17 -141 49 -205 65 -36 9 -81 20 -100 25
-122 32 -231 40 -529 39 -168 -1 -331 -5 -361 -10z m3393 -1606 l-2 -438 -438
0 -438 0 -3 425 c-1 234 0 431 3 438 3 9 101 12 442 12 l438 0 -2 -437z
m-3013 -53 l0 -450 -440 0 -440 0 0 450 0 450 440 0 440 0 0 -450z m-110
-3075 l0 -445 -440 0 -440 0 0 445 0 445 440 0 440 0 0 -445z"/>
<path d="M7740 4021 l0 -220 216 -3 c119 -2 218 0 220 3 2 3 4 102 4 220 l2
214 -221 3 -221 2 0 -219z"/>
<path d="M4730 3970 l0 -220 220 0 220 0 0 220 0 220 -220 0 -220 0 0 -220z"/>
<path d="M4620 898 l0 -223 220 3 220 3 0 219 0 220 -220 0 -220 0 0 -222z"/>
<path d="M8410 230 l0 -220 220 0 220 0 0 220 0 220 -220 0 -220 0 0 -220z"/>
</g>
</svg>
