<svg xmlns="http://www.w3.org/2000/svg" width="1009.543" height="675.71" viewBox="0 0 1009.543 675.71">
    <g transform="translate(-2060.266 1870)">
        <path d="M693.59,158.42c-64.72-2.25-126.36-23.14-185.22-46S391.21,64.23,328,52.12C287.41,44.33,240.94,43.23,208.2,65c-31.5,21-41.68,57.15-47.15,90.72-4.12,25.27-6.54,51.85,4.74,75.5,7.84,16.42,21.74,30.22,31.36,46,33.47,54.72,9.81,122.2-26.45,175.63-17,25.06-36.75,49-49.88,75.66s-19.2,57.25-7.71,84.46c11.38,27,38.51,47.24,67.9,61.5,59.69,28.94,130,37.23,198.61,41.92,151.83,10.39,304.46,5.89,456.69,1.39,56.34-1.67,112.92-3.36,168.34-12.07,30.78-4.84,62.55-12.52,84.89-31,28.37-23.53,35.4-63.38,16.39-92.88-31.88-49.49-120-61.79-142.31-114.9-12.26-29.23.33-61.8,18.16-88.91,38.24-58.17,102.33-109.19,105.7-175.68,2.32-45.66-28.49-91.39-76.13-113-49.93-22.65-119.18-19.8-156,17.69C817.4,145.55,750.74,160.4,693.59,158.42Z"
              transform="translate(1953.23 -1917.018)" fill="#93b874" opacity="0.1"/>
        <path d="M269.237,245.9a13.707,13.707,0,1,1,13.707-13.707A13.707,13.707,0,0,1,269.237,245.9Zm0-25.129a11.422,11.422,0,1,0,11.422,11.422A11.422,11.422,0,0,0,269.237,220.768Z"
              transform="translate(1991 -1948.014)" fill="#3f3d56"/>
        <path d="M878.989,601.46H856.44V578.911h22.549Zm-20.814-1.735h19.08V580.646H858.175Z"
              transform="translate(1971 -1985.014)" fill="#3f3d56"/>
        <path d="M341.735,580.992,326.355,564.5l16.489-15.38,15.38,16.489Zm-12.929-16.4L341.82,578.54l13.953-13.014-13.014-13.953Z"
              transform="translate(1971 -1985.014)" fill="#3f3d56"/>
        <path d="M856.9,734.415q-37.048-5.8-71.243-9.867l8.778-17.557c-3.047-1.016-16.251,9.141-16.251,9.141l11.172-50.785c-15.235,2.031-22.345,53.831-22.345,53.831l-17.267-17.266,8.5,19.549c-69.758-7.33-129.953-9.617-180.554-9.093l7.513-15.027c-3.047-1.016-16.251,9.141-16.251,9.141L580.124,655.7c-15.235,2.031-22.345,53.831-22.345,53.831l-17.267-17.267,9,20.706a1013.48,1013.48,0,0,0-103.623,8.345c7.5-23.356,33.679-45.809,33.679-45.809-20.131,6.263-30.6,16.467-36.026,25.925a407.86,407.86,0,0,1,21.806-141.2s-40.627,91.411-34.533,152.352l.773,10.825c-35.345,5.514-53.081,11.012-53.081,11.012Z"
              transform="translate(1971 -1985.014)" fill="#3f3d56"/>
        <circle cx="158.77" cy="158.77" r="158.77" transform="translate(2418.655 -1690.911)" fill="#93b874"
                opacity="0.3"/>
        <path d="M459.223,85.873,353.51,214.137,509.965,398.782l104.3-122.626Z" transform="translate(2053 -1820)"
              fill="#93b874"/>
        <path d="M459.223,85.873,353.51,214.137,509.965,398.782l104.3-122.626Z" transform="translate(2053 -1820)"
              opacity="0.1"/>
        <path d="M439.739,380.561h0a53.133,53.133,0,0,1,8.619-11.508l97.094-98.433s33.828-5.638,40.876,11.276L462.291,383.38Z"
              transform="translate(1971 -1985.014)" fill="#f2f2f2"/>
        <path d="M434.8,378.447,578.574,598.33s14.095,9.867,28.19,4.229l147.293-99.37L597.6,266.392,456.653,376.333Z"
              transform="translate(1971 -1985.014)" fill="#93b874"/>
        <rect width="111.092" height="2.284" transform="matrix(0.812, -0.584, 0.584, 0.812, 2460.812, -1619.483)"
              fill="#3f3d56"/>
        <rect width="2.284" height="214.62" transform="matrix(0.834, -0.552, 0.552, 0.834, 2457.713, -1593.958)"
              fill="#3f3d56"/>
        <rect width="118.967" height="2.285" transform="translate(2590.486 -1410.847) rotate(-36.344)" fill="#3f3d56"/>
        <rect width="2.284" height="214.661" transform="translate(2566.258 -1679.916) rotate(-34.838)" fill="#3f3d56"/>
        <rect width="151.386" height="1.409" transform="translate(2418.721 -1613.429) rotate(-42.545)" fill="#3f3d56"/>
        <rect width="155.492" height="1.41" transform="translate(2422.979 -1612.008) rotate(-41.439)" fill="#3f3d56"/>
        <rect width="157.533" height="1.41" transform="matrix(0.768, -0.64, 0.64, 0.768, 2425.827, -1611.998)"
              fill="#3f3d56"/>
    </g>
</svg>