<svg xmlns="http://www.w3.org/2000/svg" width="1186" height="220" viewBox="0 0 1186 220"><defs><style>.a{fill:none;}.b,.c{fill:#fff;}.c{opacity:0.7;}</style></defs><g transform="translate(-367 -430)"><rect class="a" width="1186" height="220" transform="translate(367 430)"/><path class="b" d="M88.266-98.7v43.992H26.508V-98.7H16.074V0H26.508V-45.543H88.266V0H98.559V-98.7ZM158.907.705c21.714,0,37.647-15.792,37.647-37.788S180.621-74.73,158.907-74.73s-37.788,15.651-37.788,37.647S137.193.705,158.907.705Zm0-8.883c-15.792,0-27.636-11.562-27.636-28.9s11.844-28.905,27.636-28.905S186.4-54.426,186.4-37.083,174.7-8.178,158.907-8.178ZM314.571-74.166,291.024-11.139,267.336-74.166h-8.6L234.906-11.139,211.641-74.166h-9.588L229.971,0h9.447l23.406-60.771L286.23,0h9.447l28.059-74.166ZM411.3-11.7a16.567,16.567,0,0,1-11,3.807c-8.319,0-12.831-4.794-12.831-13.536V-65.706h22.56v-8.46h-22.56V-90.381H377.457v16.215H364.2v8.46h13.254v44.838c0,13.677,7.755,21.573,21.714,21.573,5.781,0,11.7-1.692,15.651-5.217ZM460.647.705c21.714,0,37.647-15.792,37.647-37.788S482.361-74.73,460.647-74.73s-37.788,15.651-37.788,37.647S438.933.705,460.647.705Zm0-8.883c-15.792,0-27.636-11.562-27.636-28.9s11.844-28.905,27.636-28.905,27.495,11.562,27.495,28.905S476.439-8.178,460.647-8.178ZM651.7-98.7,609.261-25.521,566.4-98.7h-8.6V0h10.011V-78.537l38.775,65.988h4.935L650.292-78.96V0H660.3V-98.7ZM716.28-74.73c-11.7,0-22.7,3.666-30.174,10.011l4.512,7.473c6.063-5.358,15.087-8.742,24.675-8.742,13.818,0,21.009,6.909,21.009,19.6v4.512H712.755c-21.291,0-28.623,9.588-28.623,21.009C684.132-8.037,694.425.705,711.2.705c12.267,0,21.009-4.653,25.521-12.267V0h9.588V-45.966C746.313-65.142,735.456-74.73,716.28-74.73ZM712.755-7.191C700.911-7.191,694-12.549,694-21.15c0-7.614,4.653-13.254,19.035-13.254H736.3v12.126C732.354-12.549,724.035-7.191,712.755-7.191ZM830.913,0H843.18L808.494-43.851l31.725-30.315H827.811L783.537-33.7v-70.923H773.526V0h10.011V-21.15l17.484-16.074Zm89.112-37.083c0-22.278-15.087-37.647-35.955-37.647s-36.237,15.651-36.237,37.647S863.625.705,886.749.705c11.7,0,22-4.23,28.623-12.126l-5.64-6.486c-5.64,6.486-13.677,9.729-22.7,9.729-16.215,0-28.059-10.293-29.187-25.8h62.04C919.884-35.109,920.025-36.237,920.025-37.083ZM884.07-66.129c14.523,0,25.1,10.152,26.367,24.675H857.844C859.113-55.977,869.688-66.129,884.07-66.129Z" transform="translate(570 591)"/><path class="c" d="M0,0H25A10,10,0,0,1,35,10V129a10,10,0,0,1-10,10H0a0,0,0,0,1,0,0V0A0,0,0,0,1,0,0Z" transform="translate(513 471)"/><path class="b" d="M101,139H10A10.011,10.011,0,0,1,0,129V10A10.011,10.011,0,0,1,10,0h8.912V24.278l9.174-3.953,9.453,3.953V0H101a10.011,10.011,0,0,1,10,10V129A10.011,10.011,0,0,1,101,139ZM42.068,45.539a4.531,4.531,0,0,0-4.53,4.515V89.236a4.53,4.53,0,0,0,6.725,3.948L77.407,74.166a4.54,4.54,0,0,0,0-7.915L44.263,46.106A4.546,4.546,0,0,0,42.068,45.539Z" transform="translate(429 471)"/></g></svg>