<svg xmlns="http://www.w3.org/2000/svg" width="1097.106" height="807.917" viewBox="0 0 1097.106 807.917"> <g transform="translate(0.01 0.02)"> <path d="M63.3,476c17.36,74.2,54.11,138.34,112.19,169.43,120.7,64.61,392.91,31.29,596.07-7A465.21,465.21,0,0,0,1036.1,487.2Z" transform="translate(-51.45 -46.05)" fill="#93b874" opacity="0.1"/> <path d="M1128.65,126.76H1017.18a9.635,9.635,0,1,1,0-19.27h19.27a9.635,9.635,0,1,1,0-19.27h-13.76a9.635,9.635,0,1,1,0-19.27h58.18c-12.91-6-28-10.27-45.38-12.51-158.64-20.38-215.28-6.9-235.26,7-24.65,17.1-52.15,29.68-81.54,35.74-97.88,20.19-280.93,44.49-446.84-7.78-82.46-26-143.75,17.92-180.48,91.28H1148c-1.38-21.32-5.51-41-13.09-58.24a9.58,9.58,0,0,1-6.26,2.32Z" transform="translate(-51.45 -46.05)" fill="#93b874" opacity="0.1"/> <path d="M53.84,321.15A491.061,491.061,0,0,0,58.16,450.6l978.68,35.79a460,460,0,0,0,68-103.7ZM440.92,413.5H421.65a9.635,9.635,0,0,1,0,19.27H310.18a9.635,9.635,0,1,1,0-19.27h19.27a9.635,9.635,0,1,1,0-19.27H315.69a9.635,9.635,0,1,1,0-19.27H427.16a9.635,9.635,0,0,1,0,19.27h13.76a9.635,9.635,0,0,1,0,19.27Z" transform="translate(-51.45 -46.05)" fill="#93b874" opacity="0.1"/> <path d="M1148.05,183.34l-1068.49,26C66.57,242.74,58,280.51,54,319.67H1129.33a456.464,456.464,0,0,0,15.53-70.33C1148.06,226.32,1149.34,204.07,1148.05,183.34ZM270.92,268.5H251.65a9.635,9.635,0,0,1,0,19.27H140.18a9.635,9.635,0,1,1,0-19.27h19.27a9.635,9.635,0,0,1,0-19.27H145.69a9.635,9.635,0,1,1,0-19.27H257.16a9.635,9.635,0,0,1,0,19.27h13.76a9.635,9.635,0,1,1,0,19.27Z" transform="translate(-51.45 -46.05)" fill="#93b874" opacity="0.1"/> <g opacity="0.1"> <path d="M729,669.33s28.2-69.5,80.86-95.28A113.651,113.651,0,0,0,861.47,524a191.139,191.139,0,0,0,12.93-32.5" transform="translate(-51.45 -46.05)" fill="none" stroke="#535461" stroke-miterlimit="10" stroke-width="2"/> <path d="M907.49,475.05c-5.49,6.9-33.9,17-33.9,17s3.42-30,8.91-36.85a16,16,0,0,1,25,19.88Z" transform="translate(-51.45 -46.05)" fill="#93b874"/> <path d="M897.74,529.71c-8.36,2.81-37.68-4.18-37.68-4.18s19.15-23.28,27.51-26.09a16,16,0,0,1,10.17,30.27Z" transform="translate(-51.45 -46.05)" fill="#93b874"/> <path d="M844.88,594.31c-8.63-1.79-30.42-22.63-30.42-22.63s28.28-10.43,36.92-8.64a16,16,0,0,1-6.5,31.26Z" transform="translate(-51.45 -46.05)" fill="#93b874"/> <path d="M793.88,634.19c-8.81-.31-33.81-17.16-33.81-17.16S786.19,602,795,602.28a16,16,0,1,1-1.12,31.91Z" transform="translate(-51.45 -46.05)" fill="#93b874"/> <path d="M832.76,506c1.13,8.75,20.22,32.07,20.22,32.07s12.57-27.4,11.45-36.15A16,16,0,0,0,832.76,506Z" transform="translate(-51.45 -46.05)" fill="#93b874"/> <path d="M773.7,553.39c3.69,8,28.89,24.55,28.89,24.55s3.8-29.91.11-37.91a16,16,0,1,0-29,13.37Z" transform="translate(-51.45 -46.05)" fill="#93b874"/> <path d="M722.62,607.33c2.28,8.52,24.33,29.08,24.33,29.08s8.8-28.83,6.51-37.35a16,16,0,0,0-30.84,8.27Z" transform="translate(-51.45 -46.05)" fill="#93b874"/> <path d="M907.49,475.05c-5.49,6.9-33.9,17-33.9,17s3.42-30,8.91-36.85a16,16,0,0,1,25,19.88Z" transform="translate(-51.45 -46.05)" opacity="0.25"/> <path d="M897.74,529.71c-8.36,2.81-37.68-4.18-37.68-4.18s19.15-23.28,27.51-26.09a16,16,0,0,1,10.17,30.27Z" transform="translate(-51.45 -46.05)" opacity="0.25"/> <path d="M844.88,594.31c-8.63-1.79-30.42-22.63-30.42-22.63s28.28-10.43,36.92-8.64a16,16,0,0,1-6.5,31.26Z" transform="translate(-51.45 -46.05)" opacity="0.25"/> <path d="M793.88,634.19c-8.81-.31-33.81-17.16-33.81-17.16S786.19,602,795,602.28a16,16,0,1,1-1.12,31.91Z" transform="translate(-51.45 -46.05)" opacity="0.25"/> <path d="M832.76,506c1.13,8.75,20.22,32.07,20.22,32.07s12.57-27.4,11.45-36.15A16,16,0,0,0,832.76,506Z" transform="translate(-51.45 -46.05)" opacity="0.25"/> <path d="M773.7,553.39c3.69,8,28.89,24.55,28.89,24.55s3.8-29.91.11-37.91a16,16,0,1,0-29,13.37Z" transform="translate(-51.45 -46.05)" opacity="0.25"/> <path d="M722.62,607.33c2.28,8.52,24.33,29.08,24.33,29.08s8.8-28.83,6.51-37.35a16,16,0,0,0-30.84,8.27Z" transform="translate(-51.45 -46.05)" opacity="0.25"/> </g> <g opacity="0.1"> <path d="M709,567.71s3.56-74.92,44.69-116.71a113.65,113.65,0,0,0,32-64.35,191.133,191.133,0,0,0,1.43-34.92" transform="translate(-51.45 -46.05)" fill="none" stroke="#535461" stroke-miterlimit="10" stroke-width="2"/> <path d="M813,325.24c-2.89,8.33-26.35,27.26-26.35,27.26s-6.7-29.39-3.81-37.72A16,16,0,1,1,813,325.24Z" transform="translate(-51.45 -46.05)" fill="#93b874"/> <path d="M821.88,380c-7,5.42-36.94,8.56-36.94,8.56s10.35-28.32,17.3-33.74A16,16,0,1,1,821.88,380Z" transform="translate(-51.45 -46.05)" fill="#93b874"/> <path d="M793.43,458.52c-8.74,1.17-36.2-11.26-36.2-11.26s23.23-19.22,32-20.39a16,16,0,1,1,4.24,31.65Z" transform="translate(-51.45 -46.05)" fill="#93b874"/> <path d="M758.54,513.05c-8.42,2.63-37.59-5-37.59-5s19.64-22.87,28.06-25.5a16,16,0,0,1,9.53,30.48Z" transform="translate(-51.45 -46.05)" fill="#93b874"/> <path d="M752.71,379.22c4,7.88,29.72,23.55,29.72,23.55s2.77-30-1.19-37.9a16,16,0,0,0-28.53,14.35Z" transform="translate(-51.45 -46.05)" fill="#93b874"/> <path d="M712.71,443.52c6.14,6.33,35.4,13.58,35.4,13.58s-6.33-29.47-12.47-35.8a16,16,0,0,0-22.93,22.23Z" transform="translate(-51.45 -46.05)" fill="#93b874"/> <path d="M682.41,511.34c5,7.28,32.6,19.37,32.6,19.37s-1.26-30.12-6.24-37.4a16,16,0,0,0-26.35,18Z" transform="translate(-51.45 -46.05)" fill="#93b874"/> </g> <path d="M351.19,821.81c39.32,13.22,87.29,5.18,131.9,6.11,6.11.13,12.57.51,17.47,2.79s7.31,6,10.67,9.15c12.5,11.79,38.11,15.58,60.5,13.58s42.92-8.62,64-13.66c36.52-8.72,78.27-12.68,114.29-3.18,3.31.87,6.79,1.87,10.33,1.53,7.9-.78,10.25-7.1,15.77-10.71,10-6.52,31.63-4.75,36-13.34,2.57-5-3.34-10.2-9.77-13.64-24.62-13.16-59.84-15.33-92.06-13.3s-63.9,7.63-96.29,7.65c-40.35,0-79.34-8.59-119.3-12.11-27.68-2.44-57.89-2.14-83.84,5C382.81,795.5,376.61,812.94,351.19,821.81Z" transform="translate(-51.45 -46.05)" fill="#93b874" opacity="0.1"/> <rect width="7" height="99" transform="translate(365.51 184.9)" fill="#535461"/> <rect width="7" height="56" transform="translate(365.51 317.9)" fill="#535461"/> <rect width="315" height="684" rx="47.1" transform="translate(370.51 87.9)" fill="#535461"/> <rect width="314" height="623" rx="47.1" transform="translate(370.99 119.98)" fill="#fff"/> <rect width="52" height="7" rx="3.5" transform="translate(502.51 102.9)" fill="#eaeaf3"/> <circle cx="5" cy="5" r="5" transform="translate(567.51 101.9)" fill="#eaeaf3"/> <path d="M144,200v-8h-8v-8h8v8h16V168h-8v16h-8v-8h-8v-8h-8v-8h-8v8h-8V152h-8v-8h16v8h8V128h8v-8h8v8h8v-8h8v-8H144V96h-8V88h16V72h8v8h8v8h16v8h16v16h-8v-8H176V96h-8V88h-8v8h8v32h24v-8H176v-8h16v8h8v32h-8v8h8v16h-8v8h-8v8h16v8Zm32-8V176h-8v16Zm8-24V152h-8V136h-8v24h8v8Zm-24-8V136H136v24h24Zm32-16v-8h-8v8Zm-32-40V96h-8v8ZM88,200V184H80v8H72v8H64V168h8v8H88V160H80v8H72V144H64v-8H16v-8H32v-8H8V104H0V88H16v8h8V88H16V72H0V64H32v8h8v8H56V72H48V64h8v8h8V64h8v8h8v8H72V96h8v8h8v16h8v8H88v-8H80v8H72v8h8v8h8v8h16v8H96v16h32v8h-8v16ZM56,128v-8H48v-8H32v-8H16v8H32v8h8v8H56Zm16-8V96H64V88H40V80H32v24H48v8h8v8H72ZM0,200V144H56v56Zm48-8V152H8v40H48Zm-16-8H16V160H40v24Zm112-32v-8h8v8Zm-56-8v-8h8v8Zm24-8h-8v-8h8v-8h-8v-8H96V96H88V72h8V96h8V88h8V80h-8V72H96V64h8v8h8v8h8v8h8v8h-8v8h16v8H112v-8h-8v8h8v8h8v16ZM0,128v-8H8v8Zm48-24V96h8v8ZM184,80V72H160V64h24v8h8v8Zm-56,0V72H112V64h8V56h-8V32H96v8H80v8h8v8H80V48H72V40H64V16h8v8h8v8h8V16h16V0h8V16h8V32h16v8H120V56h8V48h8V64h8v8h-8v8Zm64-8V64h8v8ZM72,64V56H64V48h8v8h8v8Zm120-8H144V0h56V56Zm0-8V8H152V48h40ZM96,56V48h8v8ZM48,56H0V0H56V56Zm0-8V8H8V48H48Zm128-8H160V16h24V40ZM32,40H16V16H40V40ZM128,8V0h8V8ZM72,8H64V0H80V8Z" transform="translate(427.989 330.98)" fill="#535461"/> </g></svg>