<svg id="icons" enable-background="new 0 0 64 64" height="512" viewBox="0 0 64 64" width="512" xmlns="http://www.w3.org/2000/svg"><path d="m50 58.004c0 3.3-2.7 6-6 6h-24c-3.3 0-6-2.7-6-6v-48.005c0-3.3 2.7-6 6-6h24c3.3 0 6 2.7 6 6z" fill="#545c66"/><path d="m50 54.001c0 3.3-2.7 6-6 6h-24c-3.3 0-6-2.7-6-6v-48.005c0-3.3 2.7-6 6-6h24c3.3 0 6 2.7 6 6z" fill="#656d78"/><path d="m32 53.496c1.1 0 2 .9 2 2 0 1.11-.9 2-2 2s-2-.89-2-2c0-1.1.9-2 2-2z" fill="#aab2bd"/><path d="m29.03 4.498c-.553 0-1.005-.447-1.005-1s.442-1 .994-1h.011c.552 0 1 .447 1 1s-.448 1-1 1z" fill="#5d9cec"/><path d="m35 4.498h-3c-.553 0-1-.447-1-1s.447-1 1-1h3c.553 0 1 .447 1 1s-.447 1-1 1z" fill="#545c66"/><path d="m16 6.998h32v44h-32z" fill="#e6e9ed"/><path d="m44 37.01h-24c-.55 0-1 .45-1 1v12.991h26v-12.991c0-.55-.45-1-1-1z" fill="#5d9cec"/><path d="m20 11c-.55 0-1 .45-1 1v14c0 .55.45 1 1 1h24c.55 0 1-.45 1-1v-14c0-.55-.45-1-1-1z" fill="#ed5565"/><path d="m24.5 40.5c1.106 0 2 .906 2 2 0 1.12-.894 2-2 2s-2-.894-2-2c0-1.094.894-2 2-2z" fill="#ffce54"/><path d="m34 19-4 3v-6z" fill="#f5f7fa"/><path d="m44.012 30.996h-24.011c-.553 0-1-.447-1-1s.447-1 1-1h24.011c.553 0 1 .447 1 1s-.448 1-1 1z" fill="#ccd1d9"/><path d="m32 34h-11.999c-.553 0-1-.447-1-1s.447-1 1-1h11.999c.553 0 1 .447 1 1s-.447 1-1 1z" fill="#ccd1d9"/><path d="m29.673 46.368c-.024-.03-.059-.044-.085-.07-.026-.027-.041-.062-.071-.086-.025-.021-.056-.024-.082-.042-.056-.036-.111-.064-.172-.089-.062-.024-.121-.046-.185-.058-.063-.012-.123-.015-.187-.015s-.124.003-.187.015-.122.033-.184.058-.117.052-.173.089c-.026.018-.057.021-.082.042-.03.024-.045.059-.071.086-.026.026-.062.041-.085.07l-3.698 4.623h8.385c.093-.306.058-.646-.157-.914z" fill="#545c66"/><path d="m37.439 43.169c-.061-.04-.125-.065-.191-.091-.056-.021-.107-.046-.165-.058-.066-.013-.131-.011-.198-.01-.062 0-.121-.003-.181.009-.062.012-.117.038-.176.062-.064.024-.126.049-.185.088-.017.011-.036.013-.052.024-.039.029-.061.072-.095.106-.034.033-.076.055-.105.094l-5.698 7.598h12.997l-5.698-7.598c-.029-.039-.071-.061-.105-.094-.034-.034-.056-.077-.095-.106-.016-.011-.036-.013-.053-.024z" fill="#656d78"/></svg>